<mxfile host="65bd71144e">
    <diagram id="SMnT14rel_BzBs37O1hO" name="Page-1">
        <mxGraphModel dx="760" dy="540" grid="1" gridSize="10" guides="1" tooltips="1" connect="1" arrows="1" fold="1" page="1" pageScale="1" pageWidth="827" pageHeight="1169" math="0" shadow="0">
            <root>
                <mxCell id="0"/>
                <mxCell id="1" parent="0"/>
                <mxCell id="5" value="" style="sketch=0;pointerEvents=1;shadow=0;dashed=0;html=1;strokeColor=none;fillColor=#505050;labelPosition=center;verticalLabelPosition=bottom;verticalAlign=top;outlineConnect=0;align=center;shape=mxgraph.office.devices.laptop;" parent="1" vertex="1">
                    <mxGeometry x="80" y="220" width="153.53" height="90" as="geometry"/>
                </mxCell>
                <mxCell id="6" value="Cloud&#10;CDN" style="sketch=0;html=1;verticalAlign=top;labelPosition=center;verticalLabelPosition=bottom;align=center;spacingTop=-6;fontSize=11;fontStyle=1;fontColor=#999999;shape=image;aspect=fixed;imageAspect=0;image=data:image/svg+xml,PHN2ZyB4bWxucz0iaHR0cDovL3d3dy53My5vcmcvMjAwMC9zdmciIHhtbG5zOnY9Imh0dHBzOi8vdmVjdGEuaW8vbmFubyIgd2lkdGg9IjIwIiBoZWlnaHQ9IjIwIiB2aWV3Qm94PSIwIDAgMjAgMjAiPiYjeGE7CTxzdHlsZSB0eXBlPSJ0ZXh0L2NzcyI+JiN4YTsJLnN0MHtmaWxsOiM0Mjg1ZjQ7fSYjeGE7CS5zdDF7ZmlsbDojNjY5ZGY2O30mI3hhOwkuc3Qye2ZpbGw6I2FlY2JmYTt9JiN4YTsJPC9zdHlsZT4mI3hhOwk8cGF0aCBjbGFzcz0ic3QxIiBkPSJNMTMuMTMgNS42M1YzLjIxTDEwIDB2Mi40MXptMy43NSA3LjVMMjAgMTBoLTIuNWwtMy4xMiAzLjEzem0tMTMuNzUgMEwwIDEwaDIuNWwzLjEzIDMuMTN6bTEwIDEuMjV2Mi40MUwxMCAyMHYtMi40MXoiIGZpbGwtcnVsZT0iZXZlbm9kZCIvPiYjeGE7CTxwYXRoIGNsYXNzPSJzdDIiIGQ9Ik02Ljg4IDUuNjNMMTAgMi40MVYwTDYuODggMy4yMXpNMTcuNSAxMEgyMGwtMy4xMi0zLjEyaC0yLjV6bS0xNSAwSDBsMy4xMy0zLjEyaDIuNXptNC4zOCA0LjM4TDEwIDE3LjU5VjIwbC0zLjEyLTMuMjF6bTAtNy41aDYuMjV2Ni4yNUg2Ljg4eiIgZmlsbC1ydWxlPSJldmVub2RkIi8+JiN4YTsJPHBhdGggY2xhc3M9InN0MSIgZD0iTTYuODggMTMuMTNsNi4yNS02LjI1djYuMjV6IiBmaWxsLXJ1bGU9ImV2ZW5vZGQiLz4mI3hhOwk8cGF0aCBjbGFzcz0ic3QwIiBkPSJNMTAgMTBsMy4xMy0zLjEydjYuMjV6IiBmaWxsLXJ1bGU9ImV2ZW5vZGQiLz4mI3hhOzwvc3ZnPg==;" parent="1" vertex="1">
                    <mxGeometry x="334" y="302.95000000000005" width="80" height="80" as="geometry"/>
                </mxCell>
                <mxCell id="7" value="" style="strokeColor=#dddddd;shadow=1;strokeWidth=1;rounded=1;absoluteArcSize=1;arcSize=2;" parent="1" vertex="1">
                    <mxGeometry x="700" y="235" width="120" height="60" as="geometry"/>
                </mxCell>
                <mxCell id="8" value="Cloud&#10;Storage" style="editableCssRules=.*;fontColor=#999999;shape=image;verticalLabelPosition=middle;labelBackgroundColor=#ffffff;verticalAlign=middle;labelPosition=right;align=left;spacingLeft=20;part=1;points=[];imageAspect=0;image=data:image/svg+xml,PHN2ZyB4bWxucz0iaHR0cDovL3d3dy53My5vcmcvMjAwMC9zdmciIHhtbG5zOnY9Imh0dHBzOi8vdmVjdGEuaW8vbmFubyIgd2lkdGg9IjIwIiBoZWlnaHQ9IjE2IiB2aWV3Qm94PSIwIDAgMjAgMTYiPiYjeGE7CTxzdHlsZSB0eXBlPSJ0ZXh0L2NzcyI+JiN4YTsJLnN0MHtmaWxsOiM0Mjg1ZjQ7fSYjeGE7CS5zdDF7ZmlsbDojNjY5ZGY2O30mI3hhOwkuc3Qye2ZpbGw6I2FlY2JmYTt9JiN4YTsJLnN0M3tmaWxsOiNmZmY7fSYjeGE7CTwvc3R5bGU+JiN4YTsJPHBhdGggY2xhc3M9InN0MiIgZD0iTTAgMGgyMHY3SDB6Ii8+JiN4YTsJPHBhdGggY2xhc3M9InN0MSIgZD0iTTE4IDBoMnY3aC0yeiIvPiYjeGE7CTxwYXRoIGNsYXNzPSJzdDAiIGQ9Ik0xOCA3bDItN2gtMnoiLz4mI3hhOwk8cGF0aCBjbGFzcz0ic3QxIiBkPSJNMCAwaDJ2N0gweiIvPiYjeGE7CTxnIGNsYXNzPSJzdDMiPiYjeGE7CQk8cGF0aCBkPSJNNCAzaDZ2MUg0eiIvPiYjeGE7CQk8cmVjdCB4PSIxMyIgeT0iMiIgd2lkdGg9IjMiIGhlaWdodD0iMyIgcng9IjEuNSIvPiYjeGE7CTwvZz4mI3hhOwk8cGF0aCBjbGFzcz0ic3QyIiBkPSJNMCA5aDIwdjdIMHoiLz4mI3hhOwk8cGF0aCBjbGFzcz0ic3QxIiBkPSJNMTggOWgydjdoLTJ6Ii8+JiN4YTsJPHBhdGggY2xhc3M9InN0MCIgZD0iTTE4IDE2bDItN2gtMnoiLz4mI3hhOwk8cGF0aCBjbGFzcz0ic3QxIiBkPSJNMCA5aDJ2N0gweiIvPiYjeGE7CTxnIGNsYXNzPSJzdDMiPiYjeGE7CQk8cGF0aCBkPSJNNCAxMmg2djFINHoiLz4mI3hhOwkJPHJlY3QgeD0iMTMiIHk9IjExIiB3aWR0aD0iMyIgaGVpZ2h0PSIzIiByeD0iMS41Ii8+JiN4YTsJPC9nPiYjeGE7PC9zdmc+;" parent="7" vertex="1">
                    <mxGeometry width="30" height="24" relative="1" as="geometry">
                        <mxPoint x="15" y="18" as="offset"/>
                    </mxGeometry>
                </mxCell>
                <mxCell id="9" value="Backend&#10;/upload endpoint" style="editableCssRules=.*;shape=image;verticalLabelPosition=bottom;labelBackgroundColor=#ffffff;verticalAlign=top;aspect=fixed;imageAspect=0;image=data:image/svg+xml,PHN2ZyB4bWxucz0iaHR0cDovL3d3dy53My5vcmcvMjAwMC9zdmciIHhtbG5zOnY9Imh0dHBzOi8vdmVjdGEuaW8vbmFubyIgd2lkdGg9IjM2NS40NjQ5OTY3NzA0MjQ5MyIgaGVpZ2h0PSIzNzkuMjIyOTk0NDYzNTc3OTUiIHZpZXdCb3g9IjAgMCA5Ni42OTU5OTkxNDU1MDc4MSAxMDAuMzM1OTk4NTM1MTU2MjUiPiYjeGE7PHN0eWxlIHR5cGU9InRleHQvY3NzIj4mI3hhOwkuc3Qwe2ZpbGw6IzQyODVmNDt9JiN4YTsJLnN0MXtmaWxsOiNhZWNiZmE7fSYjeGE7PC9zdHlsZT4mI3hhOwk8cGF0aCBjbGFzcz0ic3QwIiBkPSJNMjkuNzk0IDEwMC4zMzZMNDYuOTIgNTAuMTY4aDQ5Ljc3NnpNMCA5OS42NzFsMTIuOTc2LTQ5LjUwMkgyOS4yMkwxNi44OTcgOTIuMDU0eiIvPiYjeGE7CTxwYXRoIGNsYXNzPSJzdDEiIGQ9Ik0yOS43OTQgMEw0Ni45MiA1MC4xNjhoNDkuNzc2ek0wIC42NjZsMTIuOTc2IDQ5LjUwMkgyOS4yMkwxNi44OTcgOC4yODN6Ii8+JiN4YTs8L3N2Zz4=;" parent="1" vertex="1">
                    <mxGeometry x="430" y="150" width="60" height="60" as="geometry"/>
                </mxCell>
                <mxCell id="12" value="" style="endArrow=classic;html=1;entryX=0;entryY=0.5;entryDx=0;entryDy=0;" parent="1" source="5" target="9" edge="1">
                    <mxGeometry width="50" height="50" relative="1" as="geometry">
                        <mxPoint x="350" y="270" as="sourcePoint"/>
                        <mxPoint x="400" y="220" as="targetPoint"/>
                        <Array as="points">
                            <mxPoint x="280" y="270"/>
                            <mxPoint x="280" y="180"/>
                        </Array>
                    </mxGeometry>
                </mxCell>
                <mxCell id="13" value="" style="endArrow=classic;html=1;entryX=0;entryY=0.25;entryDx=0;entryDy=0;exitX=1;exitY=0.5;exitDx=0;exitDy=0;" parent="1" source="9" target="7" edge="1">
                    <mxGeometry width="50" height="50" relative="1" as="geometry">
                        <mxPoint x="350" y="270" as="sourcePoint"/>
                        <mxPoint x="400" y="220" as="targetPoint"/>
                        <Array as="points">
                            <mxPoint x="580" y="180"/>
                            <mxPoint x="580" y="250"/>
                        </Array>
                    </mxGeometry>
                </mxCell>
                <mxCell id="14" value="" style="endArrow=classic;html=1;exitX=0;exitY=0.5;exitDx=0;exitDy=0;" parent="1" source="6" edge="1">
                    <mxGeometry width="50" height="50" relative="1" as="geometry">
                        <mxPoint x="350" y="270" as="sourcePoint"/>
                        <mxPoint x="240" y="300" as="targetPoint"/>
                        <Array as="points">
                            <mxPoint x="270" y="340"/>
                            <mxPoint x="270" y="300"/>
                        </Array>
                    </mxGeometry>
                </mxCell>
                <mxCell id="15" value="" style="endArrow=classic;html=1;entryX=1;entryY=0.5;entryDx=0;entryDy=0;exitX=0;exitY=0.5;exitDx=0;exitDy=0;" parent="1" source="7" target="16" edge="1">
                    <mxGeometry width="50" height="50" relative="1" as="geometry">
                        <mxPoint x="350" y="270" as="sourcePoint"/>
                        <mxPoint x="400" y="220" as="targetPoint"/>
                        <Array as="points">
                            <mxPoint x="600" y="265"/>
                            <mxPoint x="600" y="344"/>
                        </Array>
                    </mxGeometry>
                </mxCell>
                <mxCell id="16" value="Imgproxy&#10;server/function" style="shape=image;verticalLabelPosition=bottom;labelBackgroundColor=default;verticalAlign=top;aspect=fixed;imageAspect=0;image=data:image/png,iVBORw0KGgoAAAANSUhEUgAAA0gAAALACAMAAACeraLoAAAAIGNIUk0AAHomAACAhAAA+gAAAIDoAAB1MAAA6mAAADqYAAAXcJy6UTwAAAL0UExURUdwTBZ+1hd81Bd91Bd30RZ91Rd60xZ71Bl/1hl/1Bl/2Bd50xl/0xl60xZ40hd40hZ30Rd20Rd20Bdzzxd00BlyzxdvzRlryxhryxlmyBphxRplxxpgxRljxhlgxRljxhphxRlhxRlgxBpdwxlewxtZwBtdwxpbwR1bwR1XwBtUvR1TvRtPux1PvB1MuhtMuB1KuRxGthtLuB1Itx1EthxKuB1MuRxItx1JtxxJuB1GthxIth1GtiMjJDM0NB8fHzIzNCAgICsrLDk6OyEhIiAgITc4OR8fIDg5OhxDtB1Csx1CtR8tVh1DtR1DsyoqKiorKzQ1NTM0NDIyMzo7Ozs8PDM0NS4uLyssLCgpKRaA1hZ/1hZ/1Rd/1hZ+1Rd/1Rd+1RZ91BZ91Rd91Bd91RZ81BZ80xd81BZ70xd70xd71BZ60xZ60hd60xd60hZ50hd50hd50xZ40hd40hZ40Rd40RZ30Rd20Bd20Rh30Rh20Rd10Bh10Bd0zxh0zxdzzxdyzhhzzxdxzhdwzRdvzRhuzBhtyxhtzBhsyxhryhhqyhhpyRhoyRhnyBhmxxlmyBlmxxllxxlkxhlkxxlgxBljxhlixRlhxRlewxlfxBldwhpcwhlcwRpbwRpbwhpawRpZwBtawRpYwBpXvxpVvhtWvxpUvRtTvRpTvBtSvBtRvBtQuxtPuhtOuhxOuhtNuRtMuRxMuRtMuBxLuBtLuBxLuRxKuBtKtxxJtxxItxxIth1ItxxHth1Ith1HthxGtRxGth1Gth1GtRxFtTQ1NR0dHTM0NB1FtRxFtDU2NhxEtB4eHh1EtR8gIB1EtDIzMxxDtBxDsx1DtDc4OSAhITExMh8yaxxCsx1CszY3OCk0VDE3SSEhIiIiIyIrSR8lNB1BsxxBsiMjJB1BsjAxMRxAsi8wMR1AsiQlJS8wMCUmJjk6Oy8vMCYnJy4uLycoKDo6OygpKS0tLikqKioqKjg5OiorKywsLSssLDo7PDs8Pf///3UnkgoAAABadFJOUwCcTZvbtpT4Rjw8dkZG+P39m9vjwUbiRuLhiJukvJT4m/jfm/jjvOBGRuJG4kbBwdv4wXY8m0392+WU/UZrxoD177roz+Hx+di2m03JnJyAqqeAlYAtPUv6WvcRoJMAAAABYktHRPuiajbcAAAAB3RJTUUH5wMcDDQnjcCslQAAAAFvck5UAc+id5oAAFmVSURBVHja7b17nFzFeefdviSbbBInG62VUZTNKqvofe3JmI2d7Mar7OJwJ7ubNYS92pgg7tjcNhiwjbmZYIMJMcbcMQYbbEwcgzG+AFbAgBg8CGkAzRgUzyRYlmWNNBpdRhpd/tp6quqpeqpOnZ7TdUZdXWee76c/06dP99OnnprnV0+d6jp1Wi2GYeaC973vfe9/3/vF432VOPF9J4qHu6/U/g2pnTtIvLGi/1H198bU3h0k3tB5/FSvv9TOtaSQygrrF7qqw8Z+nghpbuuvuULqOH6q119q5wQn2kKe+P72rQXdBieB97Wzb7CQKvkfVX/zQ0hzXH+pnRO8v1hwdAhbhNC+shbC+WyDhVTJ/6j6a6qQ3tR5/FSvv9TOCUQBRSllgaCQuA2FBPzWAJ2CzwEntrNvrJAq+h9Vf00V0hs6j5/q9ZfauZbs2lEH/P4pplAAPkPTL/1M0P5NqZ07SLyxov9R9ddUIb2p8/ipXn+pnRO83zpAC0ufUfnUafpeqX1jM1JF/6Pqr7lC6jh+qtdfaucEJ7pgIf3XdL/fUpTaNzgjVfI/qv6aKqQ3dB4/1esvtXMCUcAPvP8D4mEL+n6976QPnHTSiSedeOIHTvyAeJS3GKX2jc1IFf2Pqr+mCulNncdP9fpL7ZzgJFVAUeKT3n+ScgALjfugwLgt/kjnwAHcLrVvbEaq6H9U/TVWSJ3HT/X6S+2cgKi9XTrFVgEcEk1FsLUo2DdWSBX9j6q/pgrpDZ3HT/X6S+2cwCsYFBQJ7cdt2pKU2jdWSBX9j6q/pgrpTZ3HT/X6S+1cSwqJFhxU/xcn/oV4uIWHfSf9hXUEP3tSO/sGC6mS/1H111ghdR4/1esvtXMteY6ECqdO+a0CRXgknfJbiIJ9Y4VU0f+o+muskDqPn+r1l9o5ASlUWWE73Wf2N1ZIFf2Pqr/mCqnj+Klef6mdE5BCnXzSyeLhFhT2rTh5xYqTVrifETvMvlL7Bgupkv9R9ddcIXUcP9XrL7VzAq9QWNDZnIJt4KR29g0WUiX/o+qvuULqOH6q119q51omI4Ucw+d2rchJ7ewbLKRK/kfVX3OF1HH8VK+/1M4JVpx88iknn3LKilNWSGjLANAWALbFH7MfOLmdfWOFVNH/qPprrJA6j5/q9ZfaOcEpqpDgzEmnKNWjQ7ANBcVC+60E2pTaN1ZIFf2Pqr/GCqnz+Klef6mdE5xilQ0FFk3DKSe/+Q2dcyqxP0W3Mo0Vkqoz8HWFqb+f67zOfo7aY/01VkgyLlAUqv5OjQi0NxN7U3+pnWvJrh0VgEyfPx/xPf+M2OvvbHLX7rSTTzttxWlUAL/Q+ff8gteAyfprrJBM4IPPqv7+WcT3/DyxN/WX2jnBaaecctopqlCA2DhtRZSQiP1p+rmxQrK+nmLqL0ZI1B6/s7lCot005WuckKy9qb/UzglWuMyVkCSNFRLx0RCXkVYU6r+5QnJiTNZfnJCcGFvRM127U0897dTTxOPUU1ecumLF6StOPz1OSMT+dFVZpzdWSDYYTjX1FyekUwv132whOT2WuK4dsTf1l9o5welK0iCAU09X/9TTo4RE7E9TYjr9536xY/75L/5z8ejcrqv2v6T+gcJh6aeqvxghUXusv1/qff+j7H9O+od1puovSkjE3tRft1UT4HSbJjGbnBrZtTP2K1Tris+wX6hLtrrgPGyD2IDTQsfP0j5OSL1T/hT2cUIKHL/bqglw6ummpcDnOhlJ2mtoCwSVCeA2bVUKx8/SPkZIvVT+FPZx50iB43dbNQECjsdlJLdCAaxU+rrsM87xs7SPF1JvlD+FfZSQQsfotmoCnOE6eMbpZ5wRl5GI/Rn2mbZSZ55+pni4xzo1dPws7WOE1EvlT2Ef17ULHL/bqgkgCiVKI51GR8+MzEjGXjyfeuap4mFf0wrE19haFY6fpX3cOVLvlD+FfZyQAsfvtmoC6JbijDPPEA/1HJeRiD1pkfC7cR98BioB3z89dPws7X+58zr75V4qfwr7KCGFjt9t1QQ488wzzzrzLPGwrUdcRiL2GnyNlXymPtbpZ7mfKxw/S/uYjNRL5U9hHyWk0PG7rZoAZ9qWAwCnz4oUkrE/Q1WW+GOchkqF11jh2DqdETp+lvYRQvrlXip/Cvt6GYkcv9uqCXCWdR4AR8+IEhKx91og2Bfapp93jp+l/a90Xme/0kvlT2EfJ6TA8butmgBn2ZYEnJcFrHGORB3Eigvt8yvWOX6W9hHnSL/QS+VPYR/XtQscv9uqCXC26+TZZ519duw5krE/21beB8/64AfP/OCZYpe7H4DPnhU6fpb2EV27X+ml8qewjxNS4PjdVk2AQAXECYnYB1ojrFTxR+4XtWu2C8fP0j6+a9cb5U9hH5+RvON3WzUBPnj22R88WxXKqLzGORK2EvQZv59WOrwHFXt26PhZ2scIqZfKn8I+TkiB43dbNQG08x86+0PioZ2OEhKx/6Bb2fgajnHWh2wFYLegcPws7eMyUu+UP4V9nJACx++2agLoFgMLJjz90NmRXTtjryv0Qx9U2z6hFss5fpb2cULqnfKnsI8SUuj43VZNgA+plgIwFVAzI2EFYitFvx/3AaH387WPEVIvlT+FfZSQQsfvtmoCkBbDOBmZkUKVXLZNK7dw/Czt44XUG+VPYR8vJO/43VZNAO3YOWefIx66gFFCIvaCcz907rlnn2u/V7w495xz7Ta8RyvWOX6W9jFC6qXyp7CP69oFjt9t1QQQhRJeG8dlIaOEROy1k1CJHzon3BrhvnNDx8/SPk5IvVP+FPZxQgocv9uqCXDOuRJsPYBzI7t2xv4c1frAM1YuvsZWCSpD1LLcVzh+lvYxQuql8qewf0tEoP186PjdVk2Ac2zLAa2KJEZIbyH2BGytsLKhUhGs1MLxs7SPE1LvlD+FfZSQQsfvtmoCnHveeeee57YY50WeIxn7c84Tj2LrRJ/xvfNCx8/SPkZIvVT+FPZRXbvQ8butmgBC2eefe7542EqJy0jE3gMr8FxyLErh+Fnaxwmpd8qfwj5KSKHjd1s1AYRj551vKwCcPj9SSMb+HFVZ55PvhkoWL0yFQ4sFlXt+6PhZ2scJqXfKn8I+LiMFjt9t1QQQjl1w7gUXnH/B+RLpaJSQiD1pmWhlwnHEH7MfP184fpb2MULqpfKnsI8/R/KO32XRhNCOgZPnXXCeeIhKiTpHIvYX2BaJVjRUKLRKoYp1jp+lfYyQeqn8KeyjhBQ6frdVE0A4KLyUBQLH5XZk187YX6CcRPA1Pp+vjwmcHzp+lvZxQuqd8qewjxJS6PhdFk0IrwJkKxIlJGIfaI0AOAa2VljR54aOn6V9fEbqjfKnsI/LSIHjd1s1AS5wWxZJ5DmSsQ99p+D/XvB/xSP8nv86P/s4IfVO+VPYx2WkwHd3WTQhdGH+8oK/FA9drCghEfsLwhWKx8AKpZXhHD9L+7jBht4pfwr7OCEFjt9l0YTwnJbORnbt/AptV7ll5GtfLyOlL38K+/iM5NFl0YQQjl54wYUX/uWF1ukLa2Yk+D7xx1QkvP7whR/+8AUfDld04fhZ2scIqZfKn8I+Skih43dbNQEutLLGCojNSMb+gtm3Ra2KurX7q9j0tn2MkHqp/Cnso4QUOn6XRRPiAtVSfJg8x2UkYi8cBNBh2I+tEn0P+HDo+Fnax3Xteqf8KezjhBQ4fpdFE0IU6qILLxIPVTjZYkQJidhrJy+64CKJ2DCvYRuf4bMXho6fpX1cRuqd8qewjztHChy/26oJQFoIKOCHL4rNSMT+w7b1wcrF19hXpp8tHD9L+xgh9VL5U9hHCSl0/G6rJsBFyjlRKtmqSKKEROwJ2FrBM7ZG+Dl8r3D8LO1jhNRL5U9hHyWk0PG7rZoAF1lH8fmiGkKS9gRa0ReRY0Fr4u/L2z5OSL1T/hT2cedIgeN3WzUBhLIvvvDiiy+62Doam5GMfaA1wv14LPq5wvGztI8/R+qN8qewjxJS6PjdVk2Ai9yKAUcvjhxsMPYXq++8mHw3VCa8Fh9wWq2LQ8fP0j4uI/VO+VPYx2ck7/jdVk2Ai63zWAFxXTtib1qmX/3VX/vVXxOPX5X42wC8xm18TelJexIwF5r6ixEStTf11/v+R9krP8FfK7j44W+v/rutmgC6xcCUCwqPy0jEHlukf5HauYPEG906U9txQrqoUP9vTO3dQeJfFLLUxTW7dqT+UzsnuNhNxVLlkedIxh5b2cYK6eICcedIbk9A1V/zhWSJE1KA1M61nK6daTFqZiTz3FghBRqNOejaNT0jFRuN+Izk1X9q51omIznUOEdyaKyQQpVWLyNZmiukZmekS1RJLrn4EvGoIyRiP0+EROvskighUXvcbq6QnBiTPtcTEvm+1M61ChkJCvdrb3mz5Nff/Ovi8eZqXBwIrsYK6SMfufgjXsVduKBQZ7PW34Ji03pJg4WEiMrT9fdrhSqZvf7eQux7LCNB8AMggI9e/NGPXvJRtY2ioO+7rXDxfce+sUKq6H9U/TVWSJ3HT/X6S+2cgCibKr1smzr3kUvclqFg02AhVfI/qv4aK6TO46d6/aV2TnBxWP1YSNwPzoidcj8Qcqxg31ghVfQ/qv4aK6TO46d6/aV2TvCRSwwip370Ix9VhcSCY0r1ncbPXtLOvrFCquh/VP01Vkidx0/1+kvtnEArHKBOYasgSiv7rPgaPuO3HKX2jRVSRf+j6q+xQuo8fqrXX2rnWlJI6AAW1HcO93/sko+Jh31NbYL2jRVSRf+j6q+5Quo4fqrXX2rnBJcUC+q3Cpd+5NJLL7nUdVbsKOwr2DdWSBX9j6q/5gqp4/ipXn+pnRN8bHan8H3qFGx/7CPqM6X2DRZSJf+j6q+5Quo4fqrXX2rnBLqQUHBRMllQAPZdSt7zHcbtS9vZN1hIlfyPqr/mCqnj+Klef6mdE+jCIFi4j10aLjzdTz8ftG+4kGb1P6r+mi2kjuKnev2ldq4lheQr3G8RQvuoTal9g4VUyf+o+muskDqPn+r1l9o5waXFlqGslfD3U4L2jRVSRf+j6q/5QqocP9XrL7VzLadrhwX9+KUf//hlH7/ssksuU68vu/Qy8Zjd6YJ9Y4VU0f+o+muukDqOn+r1l9q5lsxIUHDxZ1bKPldq31ghVfQ/qv6aK6SO46d6/aV2TqCVjqr3C4utA7znf4a2FEH7xgqpov9R9ddcIXUcP9XrL7VzrUJGooVFB3zn4DPiTbOv1L6xQqrof1T9NVdIHcdP9fpL7VxLZiQoGACFA/wWgL6P71GnS+0bK6SK/kfVX2OF1Hn8VK+/1M4JLitvDVD1tAXAbXgfnSu1b6yQKvofVX+NFVLn8VO9/lI7J/i4q3RUv98C4H6/r3pZO/vGCqmi/1H111ghdR4/1esvtXOCf1nGrwdTLjpHWoi3lH7FL6V27iDxi//yIPKLqb07SPxSqcdv8YRDsw+Nv8t/vfQrUjvXjrc6zlG81LogdUmZvFnw8XCcFeLvralLGsVbjQOXX3a5eJSKioXE1GJBoKHGHpATf5kKyTh1xcevuOKyK9wWQuzAfSwkphYL2jfUNv4yFZJ0ClqDKy5XjvjbH79c9Fs/fjkLianFgsttQ+33fpyYy1RIJuugc/BaeGW24T3xh4XE1GLBFUo4olGWogF0bLnxl6mQLgf8bARCwv2A2GAhMbVYoGPpyiuuvPLyK4txZuIvVyGhQ/BMndQCwvdZSEwtFlx+uRNrXnzZ+MtUSNKhq6646qrLryo6Jf5gK8JCYmqx4EoVW6KllnFFBeXEX6ZCMhkIhQNOXXmVykzCO/GSMxJTnwVEQCAmEWQmzpz4y1RI0hlwCgDRgJDwmbzHQmJqseAqFU/YWAdiTO3LVEiyJcDWAZ8B2AbH4H0BC4mpBXTt/F7PFXqfE3+ZCinYSlx1lSss8YeFxNRiwVU2rrChviqUpXIWkp+J/G0WElOXBQEBBXtCmQqpIBzfSb2fhcTUYsFVpY20G3+5C4k6hBBhsZCYWiwoibNC/OUqpIBoCk7yYANTlwVXlmciJ/5yFlJZNiL7WEhMLRZcWY4TazkLqY2A+ByJmRMWXHVlJXI9R/rElZ9QDogNs42QfSwkphahjERjzmxnKqT2TllYSEwtFgYa6qCochXS1VdeffUnrv5EUES4Lf4sTF1SJm8WfMIVDQCxVYi/XIXULhuBk4DY4IzE1GKhFo9QDcRTacxlKyQQCzqGTtJWQjvJQmJqsYBkIgQzkhN/mQrJcYp05aRTICbdinDXjqnFQt0w+410If4yFZLTGgDgpCci7toxtVlIBIRiot08E3+ZCqkgGiok8h5nJKYWCz8RbqwL8Ze7kOgzdVbDQmJqsfBqG1ftGu2rcxaSL5yAgywkphYLP2EF5AvKib9MhVQqIm+bhcTUIpSRrr46EHO5CqmCiDgjMbVZSIQT6vWYfU0QUgj9PguJqcXCkjgrxF+uQmrnFHftmLlioRdToQY864wUbBWKsJCYWixsE1xO/OUspAqwkJhaLKwaaZkK6a+u/itVfrFhthGyj4XE1GJhIMboa7OdqZDaO8UZiZkjFgYa6mCjnauQwAHAFxHdL/6wkJhaLPQyEYktN/5yFRJwzdXXiEc4M2knWUhMLSAjXfNX14iHFRDGmRN/mQrJtAbgDDgJ+A4LWEhMLRaS7APxBWC8OfGXq5BCrQR1WDvLQmJqsdDGktOtK8RfrkKigrnGcxbfE80FC4mpxcKr/yrY+ynEX65ComnWFxRnJGauWOh16WiMOfsyFZLjBMXbx0JiarGwPLbc15kKqdAilLQYLCSmFguvcQcaymIuVyFd4xPKTiwkpi4LZ48x9V4ThBRsIdQ2C4mpxcIS4RTirwlCagMLianFwqqRxkJimHKaLqRPXvPJ9n6JD8BnWEhMLRYWY8o8N0FInJGYrrAwJJrmZKTfMM6FWgeyj4XE1GJhIBPRmDPbeQrprSHRhETFQmJq0TdLRspeSOAAAE586ppPfeqTnypuiz99qUvK5M3CT7qiwZgrxN9vpC5pFG81jgnVCD+KmUk7yRmJqUWfjiUqIBpnJv7yzEi/QbOOBByCfVRYYpszElOLhTaWZHzRWHPiL8+M9BvGoWsCjhJYSEwt+j7pxpbfeJv4y1VIvnBoRgJ0i8FdO6YWfYEeD3028ZerkEICCgiLMxJTi75wT6cYfzkLCZy49lPXXvvJaz8pHuoZHdOvWUhMLaBr58cWFZGJv0yFZBzwnUOn+RyJmQtoRqKCKsRfpkIyTsEzQLMScZqFxNSij8RXqAdk4i9TIRVERFsMsp+FxNSir02D7cRfzkK67pPXXXftdcoZsWG2icMsJKYWfTrOxB8jHIwvJ/5yFRKFtg7eaxYSU4u+a8szkRNvmQpJtgToFGYjmpX0NguJqUUfEYwfZ078ZSqka2eDhcTMBX3eKUMpmQrpOoC2DvQZ3+OuHVOXvmuLsYU4cZepkArpNjTgwEJi6tIXOG0I9HyyzUhO5mmzzUJiatF3nSua0pjLVUghx2hm0vtZSEwt+q4Nd+UK8ZepkAotQ0nflYXE1KLv2nCMFeIvZyGFBhw8WEhMLfranD448ZerkGbLRty1Y+aCvmvDDXYh/nIVUts0yxmJmSP6rqtGthkJ+fR1nxYP+4yC0q9ZSEwt+kiMhTDxl6uQypzz9rOQmFr0lcRWIf5yFxI8AzQrEUdZSEwt+kh8hXpAJv4yFVJBRNTJ66+7/vpPX89CYurT16bBduIvZyGhYACxYbbROfE+C4mpRd/1Ns5ojBXiL1chgVOAzjymdYD9wkN8zUJiatH3aTfG8LkQf5kKyck+2FLQZ+0kC4mpRR+JMRSO3/uRrzMVUlBAFL2PhcTUoo8IyMeJv0yFVGgd/GykYSExtegrjy037jIVUjAbXV9sPVhITC36Pt2mO0f3ZyqkQqvgb3NGYuaCvuuLDXUoK2WbkdqdAPJgAzNX9H063JUrxF+mQrq+HSQzsZCYWvRdH85EBXIX0qfbO8pCYmrRV95IN6JrV6GJ4K4dU5++KtmoCRlpFlhITC36qkZa7kL66+v/Wjyuv/6G628QD+uXfs1CYmrRd70bWxhvhfjLVUi+cHzH9DMLiakFzUg05grxl7uQQDA3/LXahn3iBc1QLCSmFotIfFEBFeIvUyGZrANgqqVOakGxkJhaLNIxhpDejht/OQsJBQNAq4Db6Jx4f1HqkjJ500caZogxgPZ6TPzlKiTqFBUSpmGdcllITC0WEeH8NclOhfjLVEiOgNAhKia9j4XE1GKRJxykEH+ZCqmQhVhIzMFgUaChplnJ7M9USI5ztJXwWg4WElOLRYEGOhhvmQqprVO21biehcTUYlGgoQ6KKlMhtctCnJGYOWPRDcXzoWADnqmQgl067toxc82iG9qIh77OVEg3VISFxNRiUdVIYyExTDlNF9Lf3PA3LCTm4BMSkgi+YvxlKqSwM5rP3PAZ8WAhMfUpy0iF+MtVSCgWdMh3DF5/5m8+w0JiarHoM25sYdwV4i9XIZVlJNyvHWUhMbXAjATxJFpmE3ONyUjoyI033Hjj39xos5LwlrYULCSmFotIfAEQb+JPMf4yFZJ0BlqJGz9zY2EbnBTewTYLianFIhFXAMSW+CMbaRSTE385CwkzEDgDrQJug8OA2MFCYmqxiPR0oGsHDTRQiL9MhSQLD6BoUEBehmIhMbVYdKMVDmQiGm9O/GUqJNkyoHAgG8FrmpU+e+NnP/uZz/KoHVOPRaSBhpgSf0y8OfHX00JaVIrTItBsRJEpqYzfTO0c0zv8ZmmY3PgZJR4SU4WMJOOvPFZTOyfQhdfZRTyUU/Aa8Pfha4A6H7RfnNo5pndY3Hn8VI+/1M4JSDrFZ9oKoJO4P/SZUnsWEmNY3Hn8VI+/1M4JiPLRKR/aQpRtB+1ZSIxhcefxUz3+Ujsn+KxbeL9l8Atdtj9oz0JiDIs7j5/q8ZfaOUHAmSqUtRIOLCTGsLjz+Kkef6mdE3z2pps+e5Mq0E16u6yVQG4K2ATtWUiMYXHn8VM9/lI715IZKeTMbM5SSu1ZSIxhcefxUz3+UjvXkkKq4qCP/17QnoXEGBZ3Hj/V4y+1c4KbyluA0PNNN7mfu6mdPQuJMSzuPH6qx19q5wReq+AX9HM3fe5zn/3c7Ok3aD+vhfRbNxf5rdSFSsjizuOnevyldk4gCipKW3CgrCXwtz/Xzp6FxEIyLO48fqrHX2rnWjIjhRwKOSGaBvmZKhXCgw0sJJfFncdP9fhL7Zzgc2Fn/BYgBH6+1J6FxEIyLO48fqrHX2rnWnKwwS+47xC8BmCf7/xN7exZSCwkw+LO46d6/KV2TnCLq+5bbrpFPOyz71Tos6X2LCQWkmFx5/FTPf5SO9eSgw23fM461I4yp0rtWUgsJMPizuOnevyldq5lunZ+SwDPgL/Pf++mdvYsJBaSYXHn8VM9/lI715JC8gvqQ/eHPlNqz0JiIRkWdx4/1eMvtXMCT92oduDWW24Vj3ALEdou2LOQWEiGxZ3HT/X4S+1cSw42YMGg4DfdKl4v+ledQ+2x1WAhsZAMi51sIgIFRBIRaIuoPYoptXMCT+WS3474nn99SwHOSCwky2IZ+IiKuX8d8T2/HcpMqZ0T6PTppNJIIRVSMQuJhWRYXOiy3XJLnJBuLcZsaucEt95SLFiNjITfJZ+XpHYuJSwkl8U2LkysRQmp0PCLP6mda8muHRYKkIWMEhKx565di4Xk4wpJPccLiQqyNwYbbrUYpUcKqdBSsJBYSIbFbmMt4+R3Ir7HzUia1M61ZNfuFj8r1ThHciqKhcRCMiw2sWGzUpSQvKzWtIz0O7cWWwoWEgvJsMQEvxVUXEaiguypjEQKFJ+RfscVJA82sJBcFnsigq34rp33Xamda8mMdIsvphqDDY4gl6R2LiUsJJclxQCJFFIhznpj+DuQSWp07Wj/9dYlqZ1LCQvJZYkf/A3r2t3mqvu2W2+7LfYcydjfpp+XpHYuJSwklyUyLtxYq5eRMNZ6RkikQPFdu9+5tciS1M6lhIXkUuzazZWQxJ/UzrVM145mktuihETskSWpnUsJC8lliRNjN99288233hwnJGvfS107UQpRIlkok5kiM5Kf2VhILCSLykgYazUGG6iA8DtTOyfQGQQFINVe8xwJWgvx57abl6R2rgv8Vhn/JiCkf1P66dRuHHyWmCxym4m5+IyEMau3UzsnuNkGPwACiOvaEXsU5pLUznWBm+eG1G4cfJY4PRbITDdHdu2svRFmaucErrKVoCLPkYz9zfMoI7GQKrJExYTuraiYi+vaWXvTaKd2TkADH52MFJJbSSwkFhJliRmDso1tlJDcxvq2Xqk+IiB0MnbUztjjdy5J7VwXYCFVxM1IKlbiM5IXa6mda8muXaFLVvMcaV4NNrCQKuIKST3HC4kKskcGG1zmSkiSJamd6wIspIosCXTJ6gmpt6rvZrdbJ6lxjuQIcklq57oAC6kiSxwRqef4cyQqJrGR2rmWEwhGUJEZqSDIJamd6wIspIosCWSSuIzUm9VXTJORGSng3pLUznUBFlJFDk7XrncGG0L/VRZSdVhIFVkS8LpRGYmFVAsWUkWaLqTb3RLdfvPtt9cRkrS/XT8vTe1cF2AhVWTJHTffcbN43CGfVaz8bsT3/DaxV7HWG9V3h1Og+Iz0u5yRWEjtKGakO+KEROyVKEXwpnZOYAtjMskdURmJ2N9+h3iIZ85ILCTDEhNjIACIj5tvj+vaWXsjptTOtWQgUAdl2ozMSDRtyxZjSWrnugALqSIqI7m9nyghub2nm3slI92hMgjtd95eo2sn7W/XWWlJaue6AAupIkucLCJ7LLfHde2svXlO7VxLDjZg8KMAorp2v0vs79DCXJLauS7AQqpIsWt3e00hAfp0IrVzAh34VOFxGYnYc0ZiIRVYSjOIPi+PEhKxNw13aucEJBMZEUQJyRMRbPNgAwvJsNSJMUWckAKkdq4lM5IvgNiuHW1x5s2oHa/ZUBE3I6leUHxG8npRqZ1rmcEGp6WocY5Ez7XmRdeuFF5FyKWYkSIHG9wY653BhoAAag42mMqaDxmpFBaSy9KCAGK7dsUuYi9kpNs5Ix0cWEguS4vxEdm1K5zTc0ZqMiwkl6W3F2nUYEOAOchILCQWkss8EdKdt98pHnWEROxZSC0Wks9SN8aaKiTOSHMNC8ml6RnJyyKy1aghJGx15DMLiYVkWGrj4k6MlSghEXvzXamda0khFVIuZ6Q5gIXkUsxIkUJyG30Vv6mdaxXOkeD5zhrnSNIeYSGxkAxL3Ri7E7bjhGTte6lr53fH7ozPSIXMxkJiIRmWFge1anbtSGZK7ZzAC/74jETsdWvBGYmFZFlq42IOM5IWZmrnWuYcCZGFi+zaec5xRmIhEZZ6Aw0QLfHnSJ6YUjvXMqN2zrlNDSE5gmQhsZAMS71sFD9qV2iwe+Ic6c47iym3xjmS810sJBaSwQrprjvvEo/ojETsDamda8mMdNftqmBG5TVH7W7X38ldOxaSRZ0jgQhEcNTp2hF7E2upnWuZjOSofNn/1znFVuLOu1hILCSD27XT8RYRaMuK8doTGekuVSBaMNwOPQPYIuDrUnsWEgvJsLTz+Kkef6mdE5AsQh3zX7dztNSehcRCMiztPH6qx19q51oyIyG+A9SJdtul9iwkFpJhaefxUz3+UjvXkhkp5FC7fbD9+Ts///m7Pj/LZ1lILCTD0s7jp3r8pXZOcJcq0Oe9Z4S+9t+j+4L2LCQWkmFp5/FTPf5SO9eSXbtQAbGQQJnzZa/NfhYSC8mwtPP4qR5/qZ0T3O0W8O7P3333XWKf+COfEXyNz/SzpfYsJBaSYWnn8VM9/lI715JCgsKJUpW2CqGU6zsXtGchsZAMSzuPn+rxl9o5gad0eKb479HPtHtPMq+FxLgs7Tx+qsdfauda8hzJL2hZOsV9futRas9CYgxLO4+f6vGX2jkBUT4W1Ie2Al+4+wviEf5MwZ6FxBiWdh4/1eMvtXOCNo594S77Hm0Z6P52FfMFFhJjWNp5/FSPv9TOtWRGKnOmHdSm1J6FxBiWdh4/1eMvtXOCu++55+57VIHu0du+Y/7rewI2QXsWEmNY2nn8VI+/1M61ZNfuni9YB3B7Nmepk6X2LCTGsLTz+Kkef6mda5nBBr+AZfvK3gvas5AYw9LO46d6/KV2TnCPKtC9d98rHm4h/Wf4zD33uq3DPe3sWUiMYWnn8VM9/lI7J/BaBVFS4xAtOHXad7DUnoXEGJZ2Hj/V4y+1c4J7VQFDDuA+6iB1DrdL7VlIjGFp5/FTPf5SOyf4/8tYdg/FbxWoQ6Vf8ZupnWN6h98sDZMv3n3PrMj4W1b6Famda8fb7vniPV/84r1fdFsN3EbEjmWpS8rkzbJ7bZxBjAGwXYi/t6UuaRRvK3UK9osXYhcLianPMhJjEFP4XIi/TIXkCAgdQhGRfSwkphbLbO/GoRB/mQrJtAq+gGhXT+xgITG1WOY11DQ7OfGXqZCkczT7hF4LWEhMLZYFejrBeMtUSG2dgm1AtBosJKYWy0iX7p52ospUSO2yEGckZs5YRhrmUJyZ+MtUSMEuHXftmLlm2b1txENfZyqkeyvCQmJqsaxqpDVNSF+690viYbZZSEwtln2pGFdNEtJ9996nyi82zHbAWRYSU4tlbsMst2nMme1MheRnHkdA5DULianFMh1PQEmMqe3chYQtAjx/6T7rnH7NQmJqsUwISARSoddTiL9chUSFQ1sMdEw7ykJiarGMZCAqqEL8ZSok6RQ4As8AzUpf0q0IZySmLstIfFEBFeIvUyE5gsEMhNvgrHaehcTUYtm9TsMc3Jbxl7OQ/FaB7tNOspCYWiwLxJkfa3J/pkJyxENbCRYSM5csu8+NM6QQf3kK6e1OqxBsIe7jcySmPssC2cjPSnL77alLGsXb2gqIOMpCYmqxrBhThYwk468pGSn0WsBCYmqxrDy23H15CultwVQbaDVYSEwtlpXEVyH+8hTS29s7xRmJmSOWzRJj5r1Mz5HaO8VCYuaIZfdVJPeMNAssJKYWlYWUZ0YqF9L9990vHma7P3VJmbxZdn8xrpokJCqW+798/5e/fN+XXWfFDtjHGYmpRb/bMMttr7FW8ZepkEKiCWUlFhJTi2VeYx3q+cj4y11I9BmAbXBMeA5w146pRf/9Kpb8Xk/hOWchoXMgHCDgKGckphbLSAbChto/pZDxl6mQTCuhM48RD+wD9PuckZha9H85LKBC/GUqJEcwtDvndfM4IzG16L/PaZiD2zL+MhVSW+cQsYMzElOL/kD2CQoqVyGVOeUJioXE1KI/0EBjvDnxl6mQHOd8EREnWUhMLfoDwvF7P/J1pkJql4V4sIGZM/q9zBOIsayF5LQOiP+af0di6hI6RwrGW6ZCCp4A3l9sPVhITC36Aw118DQiUyHd/5X7vyIe4ZaCMxIzV/R7A1pIIf4yFVJQPOgUOslCYurS7wmn5BQiWyE5jtFtzkjMXNJ/f5hC/OUqpPurOchCYmrRP3tjnXVGcloDAF4HshQLialFf6Dn48eZjL9MhdS2a8fnSMxc0e811o3r2vmtg++sfs1CYmrR/5ViXPlxJ59zFhLt0vndO+7aMXMBHbULNNQ2/jIVUqmIvG0WElOLUEb6ylcCMZerkCqIiDMSU5t+IpxQr8fsy1lID9z/wANfeUA5IzbMNnGYhcTUot+LMxpfTvzlKiQqHNo6cNeOmUv6SzJRIf7yFNLvSSd8p6hzepuFxNQChQTxBNA4c+Lv91KXNIq3O905v1vHQmLmin4iIB8n/vIU0u8Z5776la9+9YGvuq0FgYXE1KL/AVcwFCf+8hTS2wvOUadI68FCYmrRH2iovxIQV7YZSXhnRAPO4GsPFhJTi/4H3PNujLNC/OUqJMAXDxUVIDZYSEwt+h9w4snBib9chURbBnQykJVYSEwt+j3h+LFm9uUuJJ8HH3jwwa8+qN4T2ywkphb9NpbEoyQbZZyRpFPgjFCNBF5TZ/U2C4mpRX8xpsyzE3+ZCikkGtNKkPdYSEwt+nV8YWMdiDG1namQZEtAWwfqLG4LWEhMLfoftGBswalDIf4yFVJQOL6wuGvH1KWfnHv7gnK2MxXSgz5eJuKMxMwJ/SS+fEE58dcEIZV17TgjMXXpLxFOIf5yFtLfPvi34vFgYZszEjNX9JfHlht/uQqpinMsJKYu/Q+GKcRfpkJynECnqHNfe/Br4sFCYurRT2Lsa38rY6ogIvk6UyEFBRTo6rGQmFoMiAZZKKht7ydnIRnnvqYdBdApaDn0voHUJWXypv9vTe/GxBrGlxN/mQpJCgYIOcXnSMxcMRBoqPHZib9MheQIyMtCZlv84YzE1GLga+55N+BnJRl/uQqJCga38UQQtrXDLCSmFgM6llBAFCf+chUSyTqFVoI4yUJiajHg9nAKsWb2ZSokp4XwnSKwkJhaDJQ00oX4y1NI7ygIhzMSczAYKMlChfh7R+qSRvF7bdMs2c9CYmoxMFuXDvflKaR3OE5QvH0sJKYWA+Wx5b7Os2tXzEglYmIhMbUYmKWxNts5Z6QKsJCYWrTLSA4sJIYpZ6BqpOXZtVNC+ruv/Z14fK2wzUJi5oqB8thy448zEsOUUzkjZSokp4XAliGQoVhITC2okEJxZvZnKqRZGwgWEjMXDJR06xqTkQDaOtBnfI+7dkxd6DlSKMbMvkyFFD7hK7YeLCSmFrNlJBNzuQrJbxVKtllITC0GvHOh0pjLVUjtshFxkoXE1GJAx5LflWvM8Dftr379777+9a99Pdh3ZSExtfDPkULn5jL+MhVSsJVAp8QfidhgITG1GPi6ii3RUsu4ooJy4i9TIZkMBMIBwEmamfQ2C4mpxQAREIgJ4gufnfjLVEh+5jEOoqD0eywkphYDWkC0sfZiLOuuXdAxAAWlYSExtRj4uoXGWSH+MhVSoUsXEtZDX3+IhcTUYuAhm3UAEVMP/d1DxZjLVUjCH+UUPKOD/jYLianLwENFAZH4sjGXqZAKwgHQuYcfevjhrz/MQmLqM/BQaSPtxl/OQgLBiD/SIaEcs43CEjtYSEwtBh62cYYNNIrHib9MhSSdAMARPxuRfSwkphY42ICNM1KIv0yF5AgIsxFtObSTLCSmFgOecCAjYbw58ZepkIxzVEBet46FxNRmwMs8flYy8ZepkIxzvpiw5dCwkJhaDJTHlht3mQqpIKBQv1XAQmJqMRCIs1BvKOuMRFsFf5szEjMXDDxcbKhDWSnbjORnoJLMxEJiajHwULgrV4i/TIX08Dce/oZ4KEfotpeZWEhMLQYeDmeiQvzlKqRQ1y7gIAuJqcWA11j78ZZ7185pDQB47bcSD32Du3ZMPQYesgL6xkPhOJPxl6mQgl27Rx5+RDwcR1lITC0GvMY6EGNZd+0e+cYjbuvwzYe/+c1vfNM6C+8LWEhMLQa+8cgj33zkm+JhBSSCqxh/mQpJCgedA+Eg6KDex0JiajFA4osKqhB/mQrJOAXCEalIbuM+4jQLianFAIkvmpEK8ZerkEKAU9TJRx55lIXE1GLgkYrkLKRvPfIt8XiksI0INbGQmFoMfNPGFjx/81u21+PEX08L6ZBDDvm3h/xb8TjE4/elEwA6glnIFdRD7wzbH3LIu/4gtXMHiT9817sOeZf1s9T/Q94lwc/i52B/uf0fpvbuIPEHpf6/k5wuUArx9/ul9ZfaOcG3igWHFkH8cbIPbTHg+dFHHn30W4/K7YdK7f9daucOEv/e8b9u/Xn2/z61dweJf1fq/0P16y+1cy0pJCicKJUomyogPCP42n/2nQvaN1hIlfyPqr/GCqnz+Klef6mdEzyqCuY7BWpH5+g+2hrAvkfb2TdWSBX9j6q/5gqp4/ipXn+pnRM88u1vf+vbtlDffvTb4mHVD2Ch4T38LLYK325n32AhVfI/qv6aK6SO46d6/aV2riUzErYKUChwAgtOHaD7QwTtGyykSv5H1V9zhdRx/FSvv9TOCUjBvvPod8TDbRkQfE2dAh5tZ99gIVXyP6r+GiukzuOnev2ldq5lMlII6hjdDjkatG+wkCr5H1V/jRVS5/FTvf5SOycIFHY2J8scLNg3VkgV/Y+qv8YKqfP4qV5/qZ0TfCfszHcf/a54qNfIoyWfLbVvrJAq+h9Vf40VUufxU73+UjvXMl07LDAtbDun/VQbtG+wkCr5H1V/80NIc1x/qZ0TfFc58N3vfFc8bCH9ViD0GXxdat9wIc3qf1T9NVdIHcdP9fpL7ZygTWEhvYacg8/QtFtq31ghVfQ/qv6aK6SO46d6/aV2riUzEhQM8B1Ap+j7oVak1L6xQqrof1T9NVZIncdP9fpL7VzLdO1owapsU+dK7RsspEr+R9VfY4XUefxUr7/Uzgl0wR77zmPioZ6/+5gtJO6Hgos3zLbvWNC+sUKq6H9U/TVWSJ3HT/X6S+1cSwoJCgiFp60DAE4AUPiQ07iv1L6xQqrof1T9NVZIncdP9fpL7ZzgMbeAFHSOtga05UAnS+0bK6SK/kfVX2OF1Hn8VK+/1M61pJCwUFBwLDBtLXwH/FRbat9gIVXyP6r+5oeQ5rj+Ujsn8BzwWwV/X+gzpfaNFVJF/6Pqr7lC6jh+qtdfaucEXqGAP3rnu9/9++/+ffF4dynwPmA+81igAhosJGw17T/1PxTqZ9b6+w/FoGhy1w4Fg/EhKK2j8vp7J7XH+kvtXEtmpILSl0d8zzsDQdFgIfl857GIJW7eEWppmyukIu+M+J7lge/pISEBjz/2uHjEConYz0MhPVZTSLb+my0kp8F+NEpIgSzeY0IyRArJ53EWUnveEfqexgrJbWSbl5GeeOKxJ1RpnsDtSCE9Qb6r2RkpUGeRQnqiUP+NFZIJC+tznJCKddYLQno88M+skZHwu+RzY4XkdoWVzzFCovZYf40VUsHXx+OEROxN/aV2rmW6duDg40+ogj0eJSRibxz84z/+oz/+oyDiDec9/3XZvp6w/14x+z7x2H/svM7+42NOK63rr/f9j7L3YwPqL0pIBUH2RtfuCfUPFH+MEJ6oKSQMCvhOzE74GoB9UKH4unD8LO1jhNRL5U9hH5+RvON3WzUBSBYBZIVECYnYexVKvx8/Qyu4cPws7SOE9I5eKn8K+7iMFDh+t1UT4Am3ZZnrjPT4E+GWi1Z64fhZ2sdlpN4pfwr7uIwUOH63VRPgie9974nveQ5HZqRQheE+cZDvPf499Rq2V35v5conVqrtwvGztI8TUu+UP4V9nJACx++2agI8vlKUSRXs8ZWPi4coYJSQiP1KW3n4vVCB4g3zHlb4ytDxs7SPEVIvlT+FfZyQAsfvtmoCPGEdxNble5FdO2Ovn+F7AahI0Rw5lQ2VD595InT8LO3jBxt6o/wp7OPOkQLH77ZqAqy0aRgKKIns2hl7Da1crGx4xhYMK7lw/CztY4TUS+VPYR8lpNDxu62aAKRQ6Ghs187Yz1KBmN79f0re9nFC6p3yp7CPE1Lg+N1WTYCVgZYiUki0UpG/X/n34mFfhz4Taunys48TUu+UP4V9lJBCx++2agL8/coikUJqV4HAkyufFA/7PrAydPws7WOE1EvlT2Efl5ECx++2agIQx5/8e+1olJCIveaplU+Jh1uBZTjHz9I+PiP1RvlT2McLyaPbqglAnETHYzOSsV+pKg/A78bKLNvvHD9L+zgh9U75U9hHCSn0vd1WTYCVxRbj+zW7dt9f+X3xUBX75FPqu7GS8T16zMLxs7SPz0i9Uf4U9lFCCh2/26oJQNKv8FptRwmJ2Gsn/UrHZ6jU7z9lK7tw/Czt44TUO+VPYR/XtQscv9uqCfCUWwGwHSckYv+Uff7+k98XPj8lgWNgKwXQzzrHz9I+Rki9VP4U9lFCCh2/26oJ8KStAEA6HyUkYi8qT/yR3wktB27jewBULqb9wvGztI8RUi+VP4V9XNcucPxuqybAUxbjdKSQaKXBNjpLX9PKxteF42dpH5eReqf8KezjM5J3/G6rJsBTTz/95NNPisfTTz/1tK6QKCERe1KhWHFYmU9/X31O/DHPheNnaR8npN4pfwr7KCGFjt9t1QQgLQpWSmxGMvZPut+JFVy2XTh+lvb1M1Le/sfYx2WkwPG7rZoAoQqpcY5EnfQr7pmnn3nmqWfU9rNPP/vsU8+W/0Pys4/PSL1R/hT27YX0n4J7l4eOn0A4PqJAolSyYM88+4x4iAJGCYnYP2srDx0GxIbZpu8Xjp+lfYyQeqn8KezbC+nQ94T2Lg8dP4VyPJ6xDpqWpEbXDlsiaH2gUgGoYLHDqWyofGyhCsfP0j5GSL1U/hT27YX0J4eFlLQ8dPwk0nF5VhVG/DGOPxslJGKvoZULlY2ViM9YyYXjZ2kfI6ReKn8K+/ZCWnX4cwElLQ8dP412HLxCSUdrdu3gGaEVV/aPKBw/S/t4IfVG+VPYtxfS4BHPBZS0PHTMROKhiMI8/+zz4kEcrCkkir8v9JnC8bO0jxNS75Q/hf0sQlp1ZEBJy0PHT6UewjPPP/+D538gHqoyoFKejxISsRc887yqMKxk3A/HevYH6jV85vnQ8bO0jztH6p3yp7CfpWu36tDnikpaHjp+MvlYnretCgBO/yBSSMb+WVVZ+IyVCa+xwmlLVjh+lvYxQuql8qewnyUjDQ4dVVTS8tDx0+nH8APr5As/eOGF518Qr6OEROy9FggqDyuZ7geeDx0/S/sYIfVS+VPYz9a1W3W4ENJqV0nLQ8dPKCDkWddJWcDIcyRjrx0UtSorFvZhJZdVrHP8LO3jzpF6p/wp7GcV0tHHPOfnpOWh46dUkEY4++wLqkDoeOw5krF/3k3l1Gl4FgcU9Woru3D8LO3juna9U/4U9rMKaVCmJCcnLQ8dP6mEFC+4FSC3a5wj4XfRZ+T50LFm2ZePfYyQeqn8KexnO0datepYEJLTu1seOlZaDUmef/HF51+0DsuCRQmpWFnw/OIL9vvpPvFHvn4xdPws7eMyUu+UP4X9bEISSjoS+nar11glLQ8dP7GIANtgvLD2hbVrn18bLyRj/7zaFn8KlYeVLT4o338hdPws7eMyUu+UP4V9eyEND+Jww2rSu1seOn5qFQm086BsdHRtlJCIvVehL65V79FtrNi1oeNnaR8npN4pfwr72YU09CeHSSWtMUpaHjp+ahW1pJBQ2VA4IDYjGfsXbYu01vt+fA8IvZ+vfbyQeqP8KexnFZJKSaupkpaHjp9aRQLhnGgmnILFZSRiv7a4/aI+Dm6/9OJLL73wkt0fssnLPk5IvVP+FPYVzpFWHbtaCmn1Gn2etDx0/NQqEqx96aW1L60VD/scl5GI/Us2jYPDsB8qULwhtykvhY6fpX2MkHqp/CnsZ8lIwyAkGG4AHaGSloeOn1pFICRbCYbIjOQD3wvgd9PKFjVsWrLC8bO0jxNS75Q/hf3sXTtxlnSoEhIqaXno+KlVJHjZdfzll15++ZVIIRn7l1955aVXbAW+sta+ppUJn10bOn6W9jFC6qXyp7Cvco60at1RargBEEpaHjp+ahUJRKFEaUSZlIPgdFxGIvavFCsQ99NnfK9w/CztY4TUS+VPYT9r1w4y0tDhcvxbSek9reWh46dWkeAVhWhGpLpB6XEZidi/pL7vpT/9w2byB7blfcXUX4yQqD3W3x+k9u4g8adOVlL1N1tGEidJIicdcYzJSGtG3rPcyXya1CoSrFX/RBoUcUJ6xUG2Gv85tXMHif9CfDT1F3eO9Eqh/v9Lau8OEv/ZNBjo69pKGWnVEEy4w4y0ZuS/EntTf6mdE7zit6wvv/xyDSFJ+5fVd77cYCFhQNjAiMtILxfqv7lCor6q7fZCGh3W43aHwgD4GqWkkTU/pILUz6mdE7xsg//Vl1999ZVXYzMSsUcaLCThqHDX/jNfjspI1B7rb34ISdXfbEJSw3arho58DhOSUNLID18p1H9q51pSSBRw9tWaGQkF9WqDheR3U+IyktelbnZGUjHxim1sX36lSkaCzt3h+JssZCSlJLf+UzsnIMpGJ19795/92X/7s/8mERsSeA3buB/fM59b61fSyy+/1lghvfrqa6++9torr9GW8U9NHWF9zVp/f+q2rKr+Giskk32hoVX1t9apJ7/+RvEkaf2fHGOEpJTk139q5wSvhv6ZRFSvvCbK/KrEb1HoZ4P2jRVSRf+j6q+xQuo4foa1koZWrf8HnNygOncqJ5HPpnauZQYboFCocvjno9r9ffAMQHCAEy+3s2+skCr6H1V/jRVSx/EzKoUEow1DP5LTVlXfTqSksfEfuvapnRO8ah2jjiA0IPzP4OtS+8YKqaL/UfXXXCF1Gj+gIymloaGhf3SGG0ZGhJKofWrnBK8VW0ra/wwFB7YmuK/UvrFCquh/VP01V0idxs/o8KieJTQ0RPp2I1JI4z+k9qmdawUzkt+C0vdD+0rtGyukiv5H1V9jhdRx/Miu3bAaAF//T3Z2wxqtpJ7LSDG8/trr4jHLhxospEr+R9VfY4XUcfyMkpOkoX/QE8DVsN3IGCjJ2qd2TqAd+vFrPxYP5SCATuJ+f9uvkKB9g4VUyf+o+muukDqNHxDSoJ64OvSjNfYkaY3MSONwnqTtUzvXkkKi/3jfSfoeOk1bk9fb2TdWSBX9j6q/5gqp0/gZlUrSGWn9Pz6HU8BHlJDGxjf8EO1TOyf4sfsP/vHrPxYP9YytB+6H17TlwH2l9o0VUkX/o+qvsULqOH6gZzesO3eyb0fPkWRKEkpS9qmdE/xEOQeFR0Kthd+awPNPXv/JT15rZ99wIc3qf1T9NVZIHccPJKRR/ZOsSEn/RMftxlBJyj61cwJdeHRK/BGb6jVAHaWf+fFPXOeD9o0VUkX/o+qvuULqNH42ypQ0OKz7dv9QOEnaML5hww97pWtH0ikFWw10EpwD6Gf9dFywb6yQKvofVX/NFVKn8SPPkUzXbuhHG4ySICONjaGShHFq5wTkn4z/dAD2/fT1n/70Jz91W9jQdql9Y4VU0f+o+muskDqOn01GSHLmqj1LMqMNQkqgpJ+8nto5wc9s4cV/XfzvXefKtn/2+s8kr7ezb6yQKvofVX+NFVLH8bNxVI/bqZS0/kdkvp3u20mEklI7J/D+yfD8s58oB8FZdJTuEy8KrUnQvrFCquh/VP01Vkgdx4/JSHq4Yegf3ZOkMZTSD19P7ZxAtAI/+2n4nwwO+U7D80+1Dbz303b2jRVSRf+j6q+xQuo4fjaZkyR9lvQP5CQJzpLGjZJSO9eSXTvqALai0L+HNIspGIDPYGtR1so69o0VUkX/o+qvsULqOH42aiWpq/tE327dP5lrkmC8YVwPN2zYsPm9qb0TGck6Q//Z+OwHQFlgBO0bK6SK/kfVX3OF1Gn8bNq4Uf8kCwlJjYCjjNao35H0WdLmHlCSdkrkV5NuMQCoY/QzfoWU2jdWSBX9j6q/5gqp0/iZ2Ggykk5JP1pj+nY43w6ktLkXctLPiv/8n5XsK6PUvrFCquh/VP01V0idxs/Exk2ekOxwgxq3GzMZqRdyEsP0JJugb2eVBH27w+1CkTDegOdIQklbWEkME2TTpk3esN3Q1iPtSdKY/EnWpqQtrCSGCTCBJ0n2N9n1x3kXnNuTJFYSwwSZFClpo5eSjjiMnCSRjMQ5iWFKmNTnSKNqwVUYbYCUtMacJI3ZEXCQ0ZYt21hJDOMzKZS0SelIXyYrlHQo+UlW/iZLTpI2s5IYpsDkpsBJ0vpDbd9uHC9K0n07zkkMU2RyQp4jjY7aX5JguGGNvZZCzVsdx4y0hZXEMAWmJs243eDwIPbtjj7K/pBErqXQUtq2jZXEMA5TIiM5PyXplET6dnItIdO3UylpOyuJYQhTk5PuSZIatzv2mMB0OzNut41zEsM4TE3okySlo0GdkdYfbnU0NjZOfkraopS0nXMSw1gmpyYmQUnDdAkUp283NjJO59vBALhQ0nbu3TGMZWpKdO020rWEVkFCWr/jSHeZSNu326y6dpyTGMYizpE2Tdir+waxb7fuOHuVrB2324x9uy1CR6wkhkGmJqcmN9nLzc1ww7pjD7NzG8ZIRtqCww3bt+9kJTGMYkqnJLJwwyo/JZHJDaikLXCStH3nTlYSwwBTcJK0yZwkmel267fqcTtcuUH/kkQGwLezkhhGI4Q0YU6SBsmwHSrJPUnSvyThSRIriWEkuyAl0ZOkVThxdd3x9nLzscAsIdm1275zmpXEMEJIk5MTExMbyUmSPkdaf8RR3gg4nQC+RStpJyuJYYSQhJKmJjbq0QZU0npQEg434A3HMCXBJUlbtqmu3XZWEsO0VNduYnLTxGhxltC6Q48xs+1GnOl2pG+3c3rn9G5WEjPfASHJ+XYqI5FZQuvW7TnczlvFs6TNeFGSGrbbzkpimJbs2k1NTuBww6BZucHr24250+3wN9mdKint5t4dM8/ZpVISnQGuT5JERjr6SDPYMEJn223GwYbtMGwn2D3DSmLmNXthtEFmJDLcgCdJdgR8rDC5YZucAY4ZaTf37ph5zS7Vt5vAlYuHyQD4Opxwp3W0gZ4kQULSQgIlzXBOYuYzQkdSSeY+ScOrzAA4niWNrHH6dhu8vh0MN0zPcO+Omc/IjDQ1IVLSqHvHMXGStH7d1uPMT7JjhVlC0LeTow3iHEl07mb2sZKYecteKSRYJnLjRnJ/c3l137r1e3bg1FV3wVV5dd+Wbdi1AynNzOxmJTHzlr36JEnd3mVYL8qF4996uAGGv+349wYy/q37diIlCSXtYyUx85W9JiVtMvfuW0WGG2DCnZncsGHcvZZiu5rdAOdI06wkZj6za9feXXpuw0ZcJtKkpPXr9uw5vjgDnP4kixkJhLRvZt9eVhIzL9krdSRXtzMzwO1J0rp1e+SEO2d1u834m6ydAS5PkoSS9rGSmPnJ3l17cZbQRtK3MydJe/YfboftNtifZMkvSbJ3B8N2ICRWEjMv2atHG6bUAPgwuZmsVhION9gBcPubLB22UydJ+/aykph5yF4cbZjQ81ZH6dV9oCSYcIe37nNWtyPjdtOqa8dKYuYr++AkCVLS5OQmepms7dtBShpZg307upb+NlxLSI/bzewGHe3bu4uVxMw39u7dpYcb1LzVYXcxfRi3O/Sw4up2m+3qduaiJOjazUBGYiUx8w4Z95CSJugvSWaWkExJx+kB8BHzQxJZKNLOW909LUcbhJR2ce+OmWfs06MNU7BM5OhGugS417dzr6TwUpLMSDjaAF/JSmLmFSYjiZOkjZtGnQVX18uJq+vWHX24/iXJXG+uMtI2d9wOZoDvm1EZiZXEzC9UAtGThCAlDQ8Pe+N2KiWBjkoGwLcrHYmUtE+nJJHkWEnMfALiXg03yKv75AD4oPOb7J51e449yty6L7Bwg7kmSf0mu1craerPU/vGMF1D9sTUsN0EXt2n7koBOhpatw7PktboO44501b1Eig78TLZ3WqwYa+awcdKYuYNM3pwAM6RJibIRUlm5WKhoz3HHWMXbjDLRG42XTvs203PqJSkfpzinMTMH2ZUAqFXUox6Qlq3Z+v+49RFSfSuFN4KKDvVlRTkJIlzEjN/mNFdsV043OD+kjSkU9LxauEGZ3m7LXhREg6AyxHwffYsiZXEzBu0jqb0DPBRsgS41pFU0hFHyl+SxpxLKbZsNtPt8DdZoaMZPX4hv3SSlcTMC2bsSdKUzkjeADgkpD1bT1CzhJyr++gA+HY9AC6/Tyc52WFkJTHzgd16mA2yBwiJ9O2G7Aj4nv2HHiaHvzEnybsy0xFw/CVJf58cUleLuLKSmHmAGRzAtYT8ZSLVfLutasKde8Mx1bXbjkugqLWEZswIuBSn6DCykpjmoy590N0wUNIm/CXJLtwgO3fHj5nV7cy4nZomtH2bXrhh2l5wrscv1CQ+VhLTeGBWz959amzAzBLy7t0HStp69OEyI9npdhvsBPBtdgBczxIS36jVOTE5wUpiGs+MM/5t74E5rOatmmE7PdwwQteJxBuObbNdu+mZGTvfTs2FZSUx84BpNc6mlbTJrNxA7ji2Hqbb7dkKE+7GxrwlwP07jqk1UPaaAXC1QNEmVhLTcHbP6Evx3GUiZUbClKQy0tbjzWWy3uSGbdswI03v1t+3d58ebYApfKBOVhLTaGwGIfd3GR51rjdXJ0lbjz/Gub8Lrsq1xU63UxNXyeSGKTUbdtPERs5JTKOZpidJMDJAV0CRV/etx99kDxw34tzg3M5twB+SdsqenVYmDoBPyr7dRs5JTJPR1z7oUxpIHurWfYMkJanhhq1bT8AZ4OM0JanrZEnfTg7c2ZQ0KQfuRrl3xzQZdVaDl8niGuBytGEVWQJlzzohpCOOhElCY+QnWXe0QY1/m67drl3mQic1ZYKVxDSWafjlZwZ/k4WfZPUdxyAhDQ7Zi5K2wgi4Gf8exwFwO9yw06SkGZSmvChJXekkvpV7d0xzgSnbdpYQCGnCmyWk70ohMtKBww+j98DEcbstZPwbVkDR32cuSpKruCp9spKYhjI9rSYj6MX07dLFg84vSeokSQ43uEsXm3mrauGGnfh9OiWp/qIcDGQlMQ1GTUbQJ0lqtGEjWXDV3roPhLT/hLExeoPzDfTWfXiSNK3vSmHWcFUnSXo9CFYS00hgnqlejM7MALcnSXblYjkCvuPow/XdZMnEVSUkcpI0Qy84V3Nh5UmSGlhnJTFNRPXFcGxAj9uRSUKkb7d16479J8BlsmPexX32JEktuIprCdlxO5gNq/TJSmIayU4yzCYngOvbMhcuSpLDDTsOPUqvyTWOawltcZZA0VfJ0uXt9LDdRnX1rfheVhLTPHbu1PPj9Bjb5BTeTXaQdO5wut3+HSfI0YYN9PI+MtrgzrezSpLT7TAlsZKY5qHu/rpvxvTtJtTFfcOjJCNh327Pjv3HH6MuSnJmCWHfbrueJUSXLpaXyU6oq9gx07GSmKZhVxrGX5Jw5WJ9E0yzlhBkpK0Hjj6OrCXkrlyMF/dN07tS4JUUkzhsN8xKYhqIXmmBzBLSKzfIlLTKG7fbISfceXcc20wHwI0w1b37zMoNcIEG3n9JKJSVxDQLvUIquUx2An+SpZMb1unJDTt2HHuknG43viGYkvSw3cy+GTraAEvmTVgdsZKYxgHBjxO2zU0wN5rJDauklNbbyQ1b958wMu6cJOn7Mm8nM8BndrtLF8uMZIYb5IXsrCSmUew0fTs7AD5hhwXspRR63G7rgeMPc27LjAPg28wAOP0+vbodfKlaoR8zEiuJaRTQG1NLDZuFG6Y24XAD3rpvSN+6Tyhp/9YDcriB3Cdps7dwg1q6eIasbqeWQ8bL2FGhrCSmOezciT/JmrkNcuEGeeu+wWE62iCXQIHZDeNl9zfHtYTsZbJ6AvjkJC71RcYDWUlMc9iuf0PdR1flmgzclcKcI+0/4vAReXWfe1eK7XblYjN8sY9clLQJBzF0524V5ySmQWx3TpL0yg0TGPGDxVlC+7fuf697ubm7TOT0TjNvlc5tkBc6bRq13yvHMVhJTEPYrlOS/OVnl5ncQH7ysQPgWkn7Dz3KvSvFFpy4ulOdJe2eVgPg9DdZ9aV2BFxJlJXENAR1QZ4dZtPrZ6kBtlH4SXZQX26+Xi3csEMo6QT3JGnzFu8nWXl3FzxJ2ktOknD8W58kiW9mJTGNYPv2neSkRi8Bbk+ShvUkITJxdcf+AyccIyeu4gxwvbqdMwCOa+lLbaq19Cf0b7LD9iSJlcQ0hG2qb6evxduFawmZ33wGSUZSy9sJJR193Lh3w7Ft6q4UOieRm8nuxWG7KXntLfbt8CSJlcQ0A90b2+0sAe6uJUSHG7bu2bp/x/7977UnSZudW/fp0QbnIic63ECG7cz8I1YSkz/qV1Tzkywupq9Xtxsld5Ndt0537oSSjj0yNN0O74G5E+/KvM+ZbjexSf1A5Yw2wM+9rCQme/DHH71k9669+vqhjd5lsuvJZbL7xVmSWbhBzxLatmULvUwWVuWaIbOEdk3Ks6SNOIgxPDiME/nEd7OSmNzR91EWkY/Lo6q7yU6Yk5lVg+TWfTBuB0o6/jB//JvccEzfKElfJ7trr1m4gf4kq0+S1EAGK4nJHPnzz7RMSfvMWZJaY8HOWx0yA+D6l6T9B44fJ+MNKiW5q3Lp79un1/mSM8Bh4Qabksj519B/T10PDFML3bWzl7Xq6XaTdnKDv0ykGgH3p9u5KWn3tHMlBd5wTN3rIpCSOCcxeSNPa6a9q/smzeQGOromr+6TM8BFRjricDLcsMVObjDT7WZ27zZX902ZyQ0b7dW3qNFValEIzklMzqjemLqNMl4drhei03MbsG+HA+BbVd/uvXQAnKzKZZYSUqvbkUspJibk1X3OAPggZiRWEpM1+k7K2BczNzXapMbthvVwwypy6749MEvowOFHmfub4y9JW8y1FHa0gdzfZXJKLQFOllbBlCS/nJXE5Iu+I8u0ntxg70oxIX/yUZN58NZ9em7DDhgAh7MkeyWFvXWf7ina71PfKGceTUziaAMRkl1dhZXEZAue2KgVUmEG+C7zm6yZ3DDoDzdIIR1j7m++waxcjDdKst8H499kANwMN6hzJHK9E+ckJmO0kMzFfftwtrb9zccGu11xVQjpiOOKV1KYSymm7e1d9pErKSbwUgoyS8ikJM5JTL5ssbdS1ncIk5MbpvDX02G6Kte69WZVLqGk947TsySiJBwAxwVXd9kbJU3qlcXdaUJD3LtjMkfraFovXbyXLrg6utFe24cjAnvURUmQkg490qakLXq0Ybuz4Kq8zQVOl5jS64qTBVeHyf0u1qvlXFlJTJZsweDXE03thQ+byMINg+7tXWA1fZ2SvJMks3Jx4SRJr8plb+/izADHjMRKYvJEX9uqIh9vIjFFTpJ0346kJJwldMBMuCO/JJk7JamEZNYSwl+SJsjEcnudrPhmveIXK4nJEpNFps1JEv4ma06SzDKRZC2hHQf2Hzj6BFwBZQMON2ynFyXNkMtk9U0wN02Qc6RBOwFciVTNnGAlMfmh+mM7bQ7By2TtRQ9mMf315jdZ9UvSgT/374GJspzW1wrudubbTaqrkjbay9jpBCT4btV1ZCUx2bFFXyOufvrB4Wp9/RDOEhpeNehdJqv6dscebn5Koqty7bQD4Li4nVnoS16gIafbjdpZQnK6nZk6wUpi8sOOWevFf8zkhgl9E8xh56KkdWYtoQMyJdHV7fCGYzj+rdbS30sWQ57EcySzlv4qMv6tV/xiJTH5oVZJxV+S9tmli+UM8NHiDc7XmZQkhHT8UePueqt04upu9X30WopJdS0FXQLcaFR/ufqhipXE5MVmcwNYMtqwV10mS36StdO09XQ7kZFASSeQ21LY+5uTc64ZPdiw1y4Tucmu9UVT0nqaknawkpis2IxjbbCKFl6Nh78k4f1dBskNztfRk6QDJxyzYdw7SdpmTpJ2O/d32WXv7zLqLBSpx9b1l6sJ5pyTmLzYvIVMElID1ua2zPR681VkAHwdThKCCXfuEuB2AFz9ImtucI5XUsipR20HwPXieZyTmJzQ6w3rO7LAkt1kCZQJuwT4KrOYkDqL2aFT0p+POylJX2++3axutw8XVcEba8rF9M3sBlwncojMisXvZyUx+aCiHy+TnaZ3pYCrHujdI8gSKHiZrJxwR+fbOfc3J8tE4nw7uRzyRnozWfpDEhltgO9nJTHZsAHHCPQE8N04Xj1lLjgfxt9kzRrg69QykVJJ73Xub26HG6bVanm76TqR+p4xm4yUcOEGM5VvvRlu2M85icmIzeraVj1LaLdasUSPNsiY9+atDqmRNX1xHww3HGa6duSiJBz/VpdS0FlCE+ZKJxy3GyTzVtfZpYpAqawkJhPMD6l6pA27YjJ9TKgLWoftYvoya+yxV/cdOHDECXZygzNvVSpp2v4ki5fJqhFw9yaYdJrQOjPAvv8AK4nJhM30JGnnNN4gTI02TMGiPxvpSRKuXGxPkg78Ob3B+TbvJMneuk/f4HxSLj6ph+1G7QooQ3ZM0J4kiQOwkpgssHPkdpoZ4OYHVB3z9CTJJA11SdIBmHDnD4CTk6TCALi60IlMXFUzYmlG2mNPklhJTCbI+HeuIpqhN5OdCFzcp8bt9uBJEk64s5eb25Ok3SQnmQVXzU1jRu243dCQXUyIniSxkpg82OAskqrXWzVxP+GczNDpdmS44fij6GWy5pckHADHZSJxxbwJeymFnQBOfpPFYTvTd2QlMb3PBjy1wUW7d9O7yaKS8JqkVbhyMQ30A+8J3HGM3gNzxty6TysJlxKyCtXzJoiS1E++ckYfK4npefACCNO3m9mNP8nuorOEBp3LZPfoO46pvt1/P4ZcJmuub4KzJDlLCC9K2ktnCY2aiwb1gKBJd3qBceg7ck5icsHcA9b8kkRPaeTpDFlMf4jOElIZw0y4w59kCxlJj4DvspMbNpGunb8mlxn/VidJWqqpq4lh2mPObLabdSIxJYmoh4XoaEoyg9RqhrbISCpjOJdS6JSk5pPr69f18nbmBudGnyQl4WiDTkl7tlqpspKYHkdnEjlqrUbanEG2CTJvdZCs061u3YcJ4/AjvSspyE+yathOZ6RdOGy3cZNzJcWsKYmVxPQ28vZGdnIDzUhkut0oJg6VN3Ss49V9+KOsmW63nSxdvDsw3U5eSrHRLl28ylu6WGWkPTvMcAYrielxNpBRaxwAt7fug5GBTfa2zGQA3B23O+Ew7z5J9ixpht66b8ouE4m3ZR50lgAfwtl2JiUdYCUxGYCT5Ozd9nCeqbl+yP4mqy5JGsKkIX+TlZF+bGo3GCYtdm7PdnMbCefWfRMT9vYu9K4UZC2hA8f+j9RuMExaxjeQJen0VbLyenOciTChBgbIXSnW49LF2LU7gnXEzHc2OCdJdNwORwYmyT32yAoo8kdTOarGOmIY81MqjFrLa5LI9eb6Lnvmrq/mmiQcWYOcxDpimJaZ27ON3LrPWbhh0i5DJ3+SXWUXXN3DOmIYCSakwkmSXZXL3q2yeJK0lXXEMC052OD+kjStrzeH4QZ1M/IJvcbw4DBdAlwJiXXEMIC+KE/ONt1u1hKi81Yn1KUUw6P+PViElFhHDCORi+DThRvUYvrkUopJ7zJZcus+1hHDKNRCqXiV+Pad26fVDVmwb6fuoEzG7YbsADjriGE04874t77BubO6nb0rxeCwc03S0awjhtGMjZs16baZGyXt9q6lsNebk99kWUcMYxh37gG7TQ/b6fsa6bX0J+XtXfB+RnqwgXXEMJaxcSGlzd4sIXcx/akJcymFzUisI4YhjOGw3eYt5raV9tZ93kkSLuc4NMQ6YhjKOA7bbSar26m+nbq6TyvJWQKFdcQwLuPj456Q9PXmM+r+YOauFBvlysVKSEf/z9TFZpjeYgRvS75FL6Wl1omcpvNWp/QsoeHRweFh0bNjHTGMx8g4ndtgLqWw499y3E6NNqhpq4N/wjpiGI+RMUxJ5rbMMLmBrMqlUtKmUVQS64hhCoyNj43TGeDOgqv7zHQ7HABnHTFMiBF7kkTWEtITV/UA+CROXBUZiXXEMAFGdEaS6w2bRVLVsB3eREItEym7dqwjhgkB50jOcANeSjGDFyVN4a37hJJYRwwTZGRkzJ9ut3O7uXXfPn1bZrgV+SjriGHKGBnTA+DyLAlnCak7G5FZQlPQt2MdMUwJIyPOsB0Zt5tRN8HUdxybZB0xTDlrRoSUNmDnbhuu3KAHwO199iY3sY4YppQ1crRhgzvaAHetnJ4x9zffBSdJrCOGKUdmJDK5wdyXWV/dh/d3Gf5fqUvKMD2MENLYWPhSCpWS5K1fp1hHDNOONWvscMMGdX9zvQQKjtuBkkZZRwzTDikkdXXfZnuWpFcu3jcjRxum/jfriGHaAudION8Ou3a4dPGMvpss64hhZmHNyBp5kmTH7fT9zXfiEuB7WUcMMxvQtTOTG+jSxbBOpBxuYB0xzKys0SdJdgb4FrLg6sw+zkcMUwEpJHuStFmfJKmJqyIjsY4YpgJrQEljY+N2ebstdJlI1hHDVGGNSkn2hyS8uk9Iafc064hhKgE6WoMnSeqCc3Prvt3/+/+kLh7D5IHKSGMj/mWyMAC+j3XEMNVYo5Q0PuZckySVNMM6YpiKrNYpacwZbZC3d2EdMUxV1qiUND5CrqSQNxxjHTFMdVarUTtykqRGG3ayjhimOqvN+LcdAIdfklhHDNMBa7SSxk1KghVXWUcM0xGr9bDdyJi9JonzEcN0yOo1OABuF27YxjpimM5YvWa1M28VhMQ6YpgOWY0pyawTyTpimI5Zvdr+JCtPkrb8p9RFYpj80BlJTVyFhMQ6YpjOeU6lpBG8KwXriGEisBlJKol1xDAxrH5uNZkAzjpimCieW21+kh0ZZx0xTByrV6OSxkZYRwwTyXM2JbGOGCaW5zAlsY4YJp7nntOjDawjhokHMxLriGFqIBISnCW9N3U5GCZrVNeOdcQwtQAhrWYdMUw9hJCeYx0xTE2Ejt6TugwMkz2sI4aZA1hHDDMHsI4YhmEYpkP+H73oJh9QTAusAAAAJXRFWHRkYXRlOmNyZWF0ZQAyMDIzLTAzLTI4VDEyOjUyOjI0KzAwOjAwDwZJvwAAACV0RVh0ZGF0ZTptb2RpZnkAMjAyMy0wMy0yOFQxMjo1MjoyNCswMDowMH5b8QMAAAAodEVYdGRhdGU6dGltZXN0YW1wADIwMjMtMDMtMjhUMTI6NTI6MzkrMDA6MDCEM7GCAAAAAElFTkSuQmCC;" vertex="1" parent="1">
                    <mxGeometry x="470" y="310" width="80" height="67.05" as="geometry"/>
                </mxCell>
                <mxCell id="19" value="" style="endArrow=classic;html=1;entryX=1;entryY=0.5;entryDx=0;entryDy=0;exitX=0;exitY=0.5;exitDx=0;exitDy=0;" edge="1" parent="1" source="16" target="6">
                    <mxGeometry width="50" height="50" relative="1" as="geometry">
                        <mxPoint x="540" y="400" as="sourcePoint"/>
                        <mxPoint x="440" y="471.475" as="targetPoint"/>
                    </mxGeometry>
                </mxCell>
            </root>
        </mxGraphModel>
    </diagram>
</mxfile>